<svg width="15" height="29" viewBox="0 0 15 29" fill="none" xmlns="http://www.w3.org/2000/svg">
<path d="M9.84375 0C10.623 0 11.25 0.608887 11.25 1.35938V3.625H3.75V1.35938C3.75 0.608887 4.37695 0 5.15625 0H9.84375ZM0 8.59238C0 7.70879 0.529687 6.90449 1.35879 6.53066L2.78906 5.8793C3.43242 5.58873 4.13672 5.4375 4.8457 5.4375H10.1543C10.8633 5.4375 11.5664 5.58873 12.2109 5.8793L13.6406 6.53066C14.4199 6.90449 15 7.70879 15 8.59238C15 9.40801 14.5605 10.1217 13.8926 10.5238C14.5664 11.0223 15 11.8039 15 12.6365C15 13.6334 14.502 14.466 13.7402 14.9021C14.502 15.4402 15 16.2729 15 17.1678C15 18.1646 14.502 18.9973 13.7402 19.4844C14.502 19.9715 15 20.8041 15 21.75C15 22.6959 14.502 23.5285 13.7402 24.0156C14.502 24.5027 15 25.3354 15 26.2812C15 27.7822 13.7402 29 12.1875 29H2.8125C1.25918 29 0 27.7822 0 26.2812C0 25.3354 0.499219 24.5027 1.25742 24.0156C0.499219 23.5285 0 22.6959 0 21.75C0 20.8041 0.499219 19.9715 1.25742 19.4844C0.499219 18.9973 0 18.1646 0 17.1678C0 16.2729 0.499219 15.4402 1.25742 14.9021C0.499219 14.466 0 13.6334 0 12.6365C0 11.8039 0.433594 11.0223 1.10566 10.5238C0.441211 10.1217 0 9.40801 0 8.59238ZM4.6875 14.5H10.3125C10.8281 14.5 11.25 14.0922 11.25 13.5938C11.25 13.0953 10.8281 12.6875 10.3125 12.6875H4.6875C4.17187 12.6875 3.75 13.0953 3.75 13.5938C3.75 14.0922 4.17187 14.5 4.6875 14.5ZM4.6875 19.9375C4.17187 19.9375 3.75 20.3453 3.75 20.8438C3.75 21.3422 4.17187 21.75 4.6875 21.75H10.3125C10.8281 21.75 11.25 21.3422 11.25 20.8438C11.25 20.3453 10.8281 19.9375 10.3125 19.9375H4.6875Z" fill="#DDC19A"/>
</svg>
