<svg width="189" height="62" viewBox="0 0 189 62" fill="none" xmlns="http://www.w3.org/2000/svg">
<g clip-path="url(#clip0_2_8)">
<path d="M72.5782 54.0844C65.5455 49.5458 56.0012 48.7493 40.6088 53.0276C24.1996 56.8908 18.7285 59.3672 11.5435 54.3959C8.78311 51.9538 7.79346 48.0218 8.53245 42.358C10.2464 33.1249 14.8784 24.2396 23.1058 14.3837C27.6982 9.25663 31.9581 4.85669 37.5832 3.08985C41.8943 1.98146 41.4912 5.37573 40.9696 5.86117C40.4191 5.86117 39.4944 5.94803 38.7798 6.41525C38.1998 6.86589 36.6077 8.32102 36.5222 10.2784C36.3988 13.2748 39.4942 12.6511 40.8292 11.006C42.2682 9.15201 44.395 5.60177 42.7221 2.29294C42.0209 1.1152 40.8094 0.301247 39.3052 0.0240908C34.1545 -0.270816 29.3574 2.18903 24.9303 4.90852C15.2483 11.6467 7.50334 20.9833 3.12091 31.2033C0.594212 37.3696 -1.6908 46.2026 1.73435 53.3919C4.3839 58.3802 9.88474 61.0299 16.4475 60.4758C21.0504 59.9913 26.6162 58.5009 30.3596 57.6011C34.103 56.6998 53.265 50.1008 59.561 61.5859C59.561 61.5859 61.6547 57.5142 66.8869 57.4273C71.1885 57.0297 77.3941 58.6749 81.9134 62.0001C80.4077 59.7317 76.1392 56.3885 72.5782 54.0844Z" fill="#E61D2A"/>
<path d="M42.5628 15.5441C38.9789 13.1884 31.7756 17.692 26.0062 25.4171C20.7302 32.3464 18.4521 40.4001 20.9313 44.1243C24.6194 48.5065 31.4659 42.1323 34.3775 38.7206L34.7531 38.3217C36.7331 36.1911 38.2628 33.6274 39.7434 31.1675C39.7434 31.1675 41.1042 28.9157 41.1692 28.8116C42.0102 28.6563 43.0233 28.4137 44.1648 28.0845C44.1485 28.1361 39.7973 35.4633 40.2412 39.1002C40.3794 40.2098 40.2738 44.263 44.2239 45.4925C49.4885 46.3765 53.6923 42.2881 57.401 38.6505C57.401 38.6505 58.0329 38.0448 58.3904 37.699C58.2999 38.0619 58.182 38.5459 58.182 38.5459C56.6407 43.9158 58.7183 45.0424 60.0179 45.4582C63.9456 46.6021 68.6377 40.8855 68.6528 40.8855C68.5312 42.6862 68.1754 44.1759 70.0701 45.3711C71.8585 46.0125 73.6684 45.0348 75.0441 44.1167C79.9995 40.6178 83.9916 35.1417 87.2162 30.408H85.1594C85.1351 30.408 80.084 37.7423 76.8042 39.3364C76.799 39.3364 76.2022 39.6434 75.8582 39.4005C75.4325 39.0365 75.6005 38.2801 75.8634 37.7442C75.88 37.7092 88.5271 15.7337 88.5271 15.7337H82.5557C82.5557 15.7337 81.9034 16.7909 81.8502 16.8603C81.8101 16.8257 81.7144 16.6439 81.648 16.5568C77.9483 11.4298 69.5702 19.3161 63.2626 28.4615C60.8342 31.9782 57.7423 35.9376 54.5364 38.7956C54.5364 38.7956 49.7871 43.1572 47.7577 40.0235C47.0159 38.7068 47.2441 36.7819 47.6625 35.5178C50.0252 28.7796 54.0965 22.6644 58.7294 18.9746C60.0373 17.9533 61.4588 17.6579 62.1642 18.091C62.8364 18.4901 62.9448 19.4766 62.5196 20.1523C61.4406 20.1177 60.5762 20.4463 59.8733 21.1738C58.4889 22.6289 58.0079 24.0322 58.448 25.3489C60.5863 28.3974 64.8509 22.3693 64.6446 18.6972C64.5709 17.3805 63.8697 16.1336 62.8234 15.5268C61.2639 14.5919 58.8848 14.834 57.3452 15.5793C55.2842 16.3585 52.0215 19.0777 50.1171 21.1913C47.7197 23.8419 43.608 26.7863 42.3221 26.4566C42.7433 25.3302 46.2164 18.2113 42.5628 15.5441ZM71.3525 26.0755C72.5141 24.4649 75.8951 20.1516 76.7194 19.4243C79.4915 16.981 80.5995 18.056 80.6955 18.8176C78.1083 23.4597 75.0547 28.7777 72.1838 33.5587C72.1897 33.5417 71.2854 34.927 71.2854 34.927C70.0174 36.8666 68.7407 38.5296 66.6582 39.69C66.3612 39.7771 65.8717 39.8119 65.5459 39.5686C65.1537 39.3087 64.999 38.8756 65.0432 38.4249C65.1679 36.9357 66.6816 32.381 71.3525 26.0755ZM38.8669 28.8641C38.8669 28.8641 38.8149 29.0206 38.7892 29.0717C38.7826 29.0717 36.1857 33.315 36.1857 33.315C34.6184 35.4113 32.6616 38.0448 30.2154 39.3087C29.4904 39.5513 28.4882 39.7075 27.9774 39.0671C26.8947 37.7677 27.4527 35.9663 27.9061 34.5114L28.0665 33.9916C29.3664 30.4584 31.4288 27.3399 33.4362 24.4471C33.4613 24.4301 33.5175 24.4128 33.5378 24.4128C33.5425 24.4301 33.5506 24.4301 33.5541 24.4649C34.8138 26.8895 37.1758 28.0149 38.9423 28.5354C38.9529 28.5354 38.9642 28.5526 38.9642 28.5874C38.9645 28.639 38.9357 28.7089 38.8669 28.8641ZM41.3272 23.8587C41.3159 23.8933 40.1705 26.5259 40.1705 26.5259C40.0049 26.6644 39.7432 26.5953 39.4431 26.5259L38.929 26.4388C37.3148 25.9368 36.0971 24.8628 35.7217 23.5811C35.2039 21.0867 37.3308 19.1293 38.268 18.4195C39.1672 17.7954 40.5651 17.4664 41.3768 18.1076C41.8774 18.6967 42.0672 19.4586 42.0672 20.2905C42.0674 21.4162 41.7206 22.6805 41.3272 23.8587Z" fill="#E61D2A"/>
<path d="M116.819 31.8953C116.243 30.6485 114.876 29.8516 113.419 29.938C108.689 30.3713 104.062 34.2686 101.632 39.863C100.358 42.7387 99.6618 45.1115 99.2056 48.8875C100.677 47.1905 103.677 44.4019 107.082 42.8774C107.082 42.8774 107.545 39.2574 109.908 36.0354C110.801 34.7012 112.591 32.5535 114.599 33.1249C116.355 33.7142 115.738 38.5816 113.405 43.2921C111.679 46.7569 109.038 50.2222 106.365 52.612C104.002 54.6214 100.507 57.0462 97.4482 55.1757C95.5218 54.033 94.5392 51.642 94.7469 48.5588C95.6673 39.8117 99.6417 32.3633 105.329 23.8758C111.194 15.9945 117.659 7.90536 126.368 3.59158C128.144 2.691 129.789 2.48319 131.211 3.0375C131.211 3.0375 123.036 7.54111 119.139 15.8731C118.148 17.9866 116.769 20.8439 118.157 23.3731C118.883 24.6893 120.171 24.7934 121.208 24.7241C125.985 23.6152 129.071 19.1464 131.593 15.0589C133.055 11.9583 134.354 8.87505 134.354 5.44528C134.354 5.02966 134.332 4.47559 134.297 4.0595C136.579 2.84744 141.259 4.99487 141.259 4.99487C144.916 6.20787 152.703 12.1841 155.329 13.3268C156.61 11.8374 158.716 9.58581 159.901 8.45967L158.185 7.40289C155.438 5.72267 152.533 4.12885 149.675 2.55277C143.183 -0.997711 137.899 0.249136 135.209 1.2193C134.152 1.60012 133.186 1.92935 133.186 1.92935C131.19 -0.253105 127.917 -0.045771 125.505 0.54357C116.832 3.03774 108.778 9.11742 100.145 19.6666C93.7972 27.9292 89.8598 35.0659 87.7612 42.1155C86.1436 46.8613 85.652 53.842 89.6002 57.9821C92.9571 61.4973 97.4082 60.7359 100.552 59.4718C107.362 56.1113 113.483 48.8705 116.533 40.5388C117.269 38.0621 118.086 34.5632 116.819 31.8953ZM132.479 5.79202C131.577 16.1505 123.54 22.2309 121.552 22.7151C120.346 22.9572 118.29 22.4207 120.126 18.0735C122.829 12.2182 127.445 7.24738 132.397 4.70091C132.517 5.13404 132.514 5.41049 132.479 5.79202Z" fill="#E61D2A"/>
<path d="M180.154 7.10798C175.83 9.56807 171.349 11.1612 165.924 10.6071C164.421 12.3051 162.957 14.0544 161.608 15.8556C169.222 17.7956 177.294 13.4826 181.796 9.37777C186.558 5.23771 189 0.024292 189 0.024292C189 0.024292 185.43 4.11181 180.154 7.10798Z" fill="#E61D2A"/>
<path d="M95.2522 20.9409L98.4522 15.7339H92.7813L89.5825 20.9409H95.2522Z" fill="#E61D2A"/>
<path d="M165.901 54.5665C165.292 54.9821 164.435 54.6626 164.755 53.7102C165.553 51.2851 168.725 46.3432 168.725 46.3432L177.56 30.6449H171.508C171.221 31.1183 170.605 32.2054 170.605 32.2054C170.325 31.7382 169.488 30.6991 169.143 30.4748C167.665 29.5387 165.496 29.9813 163.999 30.8298C157.493 34.6411 152.746 42.1712 149.003 48.0435C149.003 48.0435 145.062 54.5712 142.874 55.0567C141.166 55.1954 141.343 52.8906 141.416 52.3535C142.077 48.4729 143.61 44.7837 145.155 41.4405C148.298 39.2581 151.884 36.4001 155.143 33.265C162.216 26.4916 168.179 18.8181 169.05 17.1033C169.05 17.1033 168.107 17.2941 166.993 17.3284C161.552 24.9326 150.417 35.9843 147.041 37.6295C148.536 34.026 158.198 16.826 166.42 8.59838L167.714 7.35082C169.715 5.39345 171.788 3.38425 173.404 3.05502C173.574 3.03774 173.794 3.05502 173.984 3.45407C174.056 4.97807 173.489 6.10421 172.84 7.38585L171.929 9.25683C171.929 9.25683 173.219 9.01423 174.066 8.73636C175.049 6.88384 176.137 4.80458 175.736 2.32817C175.602 1.53125 175.026 0.925109 174.274 0.786413C171.821 0.318727 169.148 2.13693 166.997 3.60981L166.91 3.6614C155.853 12.3396 146.517 24.846 138.354 41.9253C137.762 42.375 135.477 42.9125 135.088 42.6523C135.894 40.9899 136.909 38.7549 137.417 36.3298C137.505 35.6368 137.587 34.927 137.587 34.2342C137.587 32.7434 137.229 31.3408 135.896 30.3711C134.333 29.5915 132.401 29.9555 131.099 30.5441C125.264 32.9692 120.903 38.9629 117.756 43.899C116.064 47.035 114.376 50.3938 113.909 54.2399C113.58 57.2533 114.25 59.1934 115.96 60.1638C117.719 61.0639 119.933 60.1283 120.802 59.6784C126.713 56.5606 130.844 50.3079 134.099 44.5913C134.229 44.5742 136.006 44.5226 137.351 44.1756C137.369 44.1756 137.376 44.1756 137.406 44.1939C137.329 44.4526 136.634 46.5318 136.634 46.5318C134.571 52.594 133.617 56.717 135.566 59.1589C138.351 62.6062 142.962 59.0382 146.713 54.3258C145.908 59.9726 148.829 60.8564 151.055 60.4237C153.613 59.7312 156.464 56.9937 157.786 55.5911C157.362 57.2363 157.477 60.1813 159.804 60.4755C161.399 60.7709 162.592 59.9018 163.974 59.1567C168.928 56.4543 174.858 47.4492 176.397 44.8457H174.379C172.19 48.1595 169.405 52.5043 165.901 54.5665ZM121.435 53.9634C121.121 53.4958 121.016 52.9843 121.006 52.4314C120.946 49.035 124.593 42.9525 127.168 39.6389C127.173 39.6389 127.173 39.6389 127.173 39.6389C128.252 42.0057 130.696 43.5271 132.171 44.1683C130.339 48.2565 124.056 57.0119 121.435 53.9634ZM133.204 42.3406C133.03 42.4625 129.949 41.4228 129.354 38.5648C128.848 36.1043 130.54 34.1817 132.176 33.2125C132.878 32.6579 133.936 32.4679 134.712 32.7438C135.433 33.2295 135.628 34.0963 135.628 35.0302C135.628 35.603 135.552 36.1914 135.485 36.7282C135.485 36.7282 135.472 36.8326 135.47 36.8498C134.957 38.7719 134.171 40.6602 133.204 42.3406ZM157.915 52.8723C157.913 52.8723 157.331 53.3918 157.331 53.3918C156.5 54.1362 155.644 54.9331 154.612 54.5346C154.327 54.4306 154.126 54.0501 154.078 53.7547C154.031 51.6241 154.989 49.6499 155.917 47.7275L156.156 47.2248C158.827 42.756 161.932 37.4903 166.493 33.8359C167.261 33.2804 168.095 32.8137 168.976 33.1777C169.178 33.3677 169.414 33.6972 169.414 34.026C169.414 34.1303 169.322 34.4073 169.268 34.4934C167.995 36.5556 166.781 38.7206 165.602 40.7989C163.297 44.9044 160.905 49.1476 157.915 52.8723Z" fill="#E61D2A"/>
</g>
<defs>
<clipPath id="clip0_2_8">
<rect width="189" height="62" fill="white"/>
</clipPath>
</defs>
</svg>
